# xmcd
#
# Track frame offsets: 
#        150
#        17290
#        33480
#        48812
#        70707
#        93685
#        116997
#        132845
#        151817
#        173000
#        188657
#        205677
#        223780
#
# Disc length: 3181 seconds
#
# Revision: 1
# Processed by: cddbd v1.5.2PL0 Copyright (c) Steve Scherf et al.
# Submitted via: ExactAudioCopyFreeDBPlugin 1.0
#
DISCID=a80c6b0d
DTITLE=Cleopatra - Steppin' Out
DYEAR=2000
DGENRE=R&B
TTITLE0=Press Here to Start
TTITLE1=Come and Get Me
TTITLE2=U Got It
TTITLE3=Sweat Me
TTITLE4=Who's Your Woman
TTITLE5=Nobody Said
TTITLE6=Number One Fan
TTITLE7=Voo-Doo
TTITLE8=Yes This Party's Going Right
TTITLE9=You Can't Be in My Life
TTITLE10=Bingo My Love
TTITLE11=Questions and Jealousy
TTITLE12=Take Me Now (Stop, Stop...)
EXTD=
EXTT0=
EXTT1=
EXTT2=
EXTT3=
EXTT4=
EXTT5=
EXTT6=
EXTT7=
EXTT8=
EXTT9=
EXTT10=
EXTT11=
EXTT12=
PLAYORDER=
